<mxfile host="app.diagrams.net" modified="2023-10-03T17:55:14.089Z" agent="Mozilla/5.0 (Windows NT 10.0; Win64; x64) AppleWebKit/537.36 (KHTML, like Gecko) Chrome/117.0.0.0 Safari/537.36" etag="2aIPirwAQwSV5UuYQA9s" version="22.0.2" type="device">
  <diagram name="Page-1" id="e7e014a7-5840-1c2e-5031-d8a46d1fe8dd">
    <mxGraphModel dx="1035" dy="536" grid="1" gridSize="10" guides="1" tooltips="1" connect="1" arrows="1" fold="1" page="1" pageScale="1" pageWidth="1169" pageHeight="826" background="none" math="0" shadow="0">
      <root>
        <mxCell id="0" />
        <mxCell id="1" parent="0" />
        <mxCell id="5HN4UKg1Xnu_4getq7X6-49" value="Pharmacy Shop Management System" style="swimlane;childLayout=stackLayout;resizeParent=1;resizeParentMax=0;startSize=20;html=1;" parent="1" vertex="1">
          <mxGeometry x="220" y="60" width="590" height="670" as="geometry" />
        </mxCell>
        <mxCell id="5HN4UKg1Xnu_4getq7X6-50" value="Staff" style="swimlane;startSize=20;html=1;" parent="5HN4UKg1Xnu_4getq7X6-49" vertex="1">
          <mxGeometry y="20" width="220" height="650" as="geometry" />
        </mxCell>
        <mxCell id="5HN4UKg1Xnu_4getq7X6-69" style="rounded=0;orthogonalLoop=1;jettySize=auto;html=1;exitX=0.493;exitY=0.867;exitDx=0;exitDy=0;entryX=0.5;entryY=0;entryDx=0;entryDy=0;exitPerimeter=0;" parent="5HN4UKg1Xnu_4getq7X6-50" source="5" target="5HN4UKg1Xnu_4getq7X6-56" edge="1">
          <mxGeometry relative="1" as="geometry" />
        </mxCell>
        <mxCell id="5" value="" style="ellipse;shape=startState;fillColor=#000000;strokeColor=none;" parent="5HN4UKg1Xnu_4getq7X6-50" vertex="1">
          <mxGeometry x="81" y="40" width="30" height="30" as="geometry" />
        </mxCell>
        <mxCell id="lQaxIbGDZZwbGsKKoguf-6" style="edgeStyle=orthogonalEdgeStyle;rounded=0;orthogonalLoop=1;jettySize=auto;html=1;exitX=1;exitY=0.5;exitDx=0;exitDy=0;" edge="1" parent="5HN4UKg1Xnu_4getq7X6-50" source="5HN4UKg1Xnu_4getq7X6-56">
          <mxGeometry relative="1" as="geometry">
            <mxPoint x="420" y="160" as="targetPoint" />
          </mxGeometry>
        </mxCell>
        <mxCell id="5HN4UKg1Xnu_4getq7X6-56" value="Click&amp;nbsp; report button" style="rounded=1;whiteSpace=wrap;html=1;" parent="5HN4UKg1Xnu_4getq7X6-50" vertex="1">
          <mxGeometry x="46" y="110" width="100" height="40" as="geometry" />
        </mxCell>
        <mxCell id="lQaxIbGDZZwbGsKKoguf-20" value="Click print button" style="rounded=1;whiteSpace=wrap;html=1;" vertex="1" parent="5HN4UKg1Xnu_4getq7X6-50">
          <mxGeometry x="40" y="365" width="100" height="40" as="geometry" />
        </mxCell>
        <mxCell id="5HN4UKg1Xnu_4getq7X6-51" value="System" style="swimlane;startSize=20;html=1;" parent="5HN4UKg1Xnu_4getq7X6-49" vertex="1">
          <mxGeometry x="220" y="20" width="370" height="650" as="geometry" />
        </mxCell>
        <mxCell id="m0uHN0fnXdyNOFm_q_yZ-72" value="" style="ellipse;html=1;shape=endState;fillColor=#000000;strokeColor=#000000;" parent="5HN4UKg1Xnu_4getq7X6-51" vertex="1">
          <mxGeometry x="180" y="560" width="30" height="30" as="geometry" />
        </mxCell>
        <mxCell id="lQaxIbGDZZwbGsKKoguf-5" value="" style="endArrow=none;html=1;rounded=0;strokeWidth=6;" edge="1" parent="5HN4UKg1Xnu_4getq7X6-51">
          <mxGeometry width="50" height="50" relative="1" as="geometry">
            <mxPoint x="59" y="163" as="sourcePoint" />
            <mxPoint x="339" y="163" as="targetPoint" />
          </mxGeometry>
        </mxCell>
        <mxCell id="lQaxIbGDZZwbGsKKoguf-19" style="edgeStyle=orthogonalEdgeStyle;rounded=0;orthogonalLoop=1;jettySize=auto;html=1;" edge="1" parent="5HN4UKg1Xnu_4getq7X6-51" target="lQaxIbGDZZwbGsKKoguf-18">
          <mxGeometry relative="1" as="geometry">
            <mxPoint x="195" y="290" as="sourcePoint" />
          </mxGeometry>
        </mxCell>
        <mxCell id="lQaxIbGDZZwbGsKKoguf-25" style="edgeStyle=orthogonalEdgeStyle;rounded=0;orthogonalLoop=1;jettySize=auto;html=1;exitX=1;exitY=0.5;exitDx=0;exitDy=0;" edge="1" parent="5HN4UKg1Xnu_4getq7X6-51" source="lQaxIbGDZZwbGsKKoguf-18">
          <mxGeometry relative="1" as="geometry">
            <mxPoint x="195" y="520" as="targetPoint" />
            <Array as="points">
              <mxPoint x="270" y="385" />
              <mxPoint x="270" y="520" />
              <mxPoint x="210" y="520" />
            </Array>
          </mxGeometry>
        </mxCell>
        <mxCell id="lQaxIbGDZZwbGsKKoguf-18" value="" style="rhombus;whiteSpace=wrap;html=1;" vertex="1" parent="5HN4UKg1Xnu_4getq7X6-51">
          <mxGeometry x="170" y="360" width="50" height="50" as="geometry" />
        </mxCell>
        <mxCell id="lQaxIbGDZZwbGsKKoguf-24" style="edgeStyle=orthogonalEdgeStyle;rounded=0;orthogonalLoop=1;jettySize=auto;html=1;exitX=0.5;exitY=1;exitDx=0;exitDy=0;entryX=0.5;entryY=0;entryDx=0;entryDy=0;" edge="1" parent="5HN4UKg1Xnu_4getq7X6-51" source="lQaxIbGDZZwbGsKKoguf-22" target="m0uHN0fnXdyNOFm_q_yZ-72">
          <mxGeometry relative="1" as="geometry" />
        </mxCell>
        <mxCell id="lQaxIbGDZZwbGsKKoguf-22" value="Print report" style="rounded=1;whiteSpace=wrap;html=1;" vertex="1" parent="5HN4UKg1Xnu_4getq7X6-51">
          <mxGeometry x="145" y="430" width="100" height="40" as="geometry" />
        </mxCell>
        <mxCell id="lQaxIbGDZZwbGsKKoguf-21" style="edgeStyle=orthogonalEdgeStyle;rounded=0;orthogonalLoop=1;jettySize=auto;html=1;exitX=0;exitY=0.5;exitDx=0;exitDy=0;entryX=1;entryY=0.5;entryDx=0;entryDy=0;" edge="1" parent="5HN4UKg1Xnu_4getq7X6-49" source="lQaxIbGDZZwbGsKKoguf-18" target="lQaxIbGDZZwbGsKKoguf-20">
          <mxGeometry relative="1" as="geometry" />
        </mxCell>
        <mxCell id="lQaxIbGDZZwbGsKKoguf-23" style="edgeStyle=orthogonalEdgeStyle;rounded=0;orthogonalLoop=1;jettySize=auto;html=1;exitX=0.5;exitY=1;exitDx=0;exitDy=0;entryX=0;entryY=0.5;entryDx=0;entryDy=0;" edge="1" parent="5HN4UKg1Xnu_4getq7X6-49" source="lQaxIbGDZZwbGsKKoguf-20" target="lQaxIbGDZZwbGsKKoguf-22">
          <mxGeometry relative="1" as="geometry" />
        </mxCell>
        <mxCell id="lQaxIbGDZZwbGsKKoguf-8" style="rounded=0;orthogonalLoop=1;jettySize=auto;html=1;exitX=0.493;exitY=0.867;exitDx=0;exitDy=0;entryX=0.5;entryY=0;entryDx=0;entryDy=0;exitPerimeter=0;" edge="1" parent="1" target="lQaxIbGDZZwbGsKKoguf-9">
          <mxGeometry relative="1" as="geometry">
            <mxPoint x="516" y="246" as="sourcePoint" />
          </mxGeometry>
        </mxCell>
        <mxCell id="lQaxIbGDZZwbGsKKoguf-15" style="edgeStyle=orthogonalEdgeStyle;rounded=0;orthogonalLoop=1;jettySize=auto;html=1;exitX=0.5;exitY=1;exitDx=0;exitDy=0;" edge="1" parent="1" source="lQaxIbGDZZwbGsKKoguf-9">
          <mxGeometry relative="1" as="geometry">
            <mxPoint x="515.7586206896551" y="370" as="targetPoint" />
          </mxGeometry>
        </mxCell>
        <mxCell id="lQaxIbGDZZwbGsKKoguf-9" value="Generate remote customer order report" style="rounded=1;whiteSpace=wrap;html=1;" vertex="1" parent="1">
          <mxGeometry x="466" y="290" width="100" height="40" as="geometry" />
        </mxCell>
        <mxCell id="lQaxIbGDZZwbGsKKoguf-10" style="rounded=0;orthogonalLoop=1;jettySize=auto;html=1;entryX=0.5;entryY=0;entryDx=0;entryDy=0;" edge="1" parent="1" target="lQaxIbGDZZwbGsKKoguf-11">
          <mxGeometry relative="1" as="geometry">
            <mxPoint x="631" y="246" as="sourcePoint" />
          </mxGeometry>
        </mxCell>
        <mxCell id="lQaxIbGDZZwbGsKKoguf-16" style="edgeStyle=orthogonalEdgeStyle;rounded=0;orthogonalLoop=1;jettySize=auto;html=1;exitX=0.5;exitY=1;exitDx=0;exitDy=0;" edge="1" parent="1" source="lQaxIbGDZZwbGsKKoguf-11">
          <mxGeometry relative="1" as="geometry">
            <mxPoint x="630.9310344827586" y="370" as="targetPoint" />
          </mxGeometry>
        </mxCell>
        <mxCell id="lQaxIbGDZZwbGsKKoguf-11" value="Generate direct customer order report" style="rounded=1;whiteSpace=wrap;html=1;" vertex="1" parent="1">
          <mxGeometry x="581" y="290" width="100" height="40" as="geometry" />
        </mxCell>
        <mxCell id="lQaxIbGDZZwbGsKKoguf-12" style="rounded=0;orthogonalLoop=1;jettySize=auto;html=1;exitX=0.493;exitY=0.867;exitDx=0;exitDy=0;entryX=0.5;entryY=0;entryDx=0;entryDy=0;exitPerimeter=0;" edge="1" parent="1" target="lQaxIbGDZZwbGsKKoguf-13">
          <mxGeometry relative="1" as="geometry">
            <mxPoint x="747" y="246" as="sourcePoint" />
          </mxGeometry>
        </mxCell>
        <mxCell id="lQaxIbGDZZwbGsKKoguf-17" style="edgeStyle=orthogonalEdgeStyle;rounded=0;orthogonalLoop=1;jettySize=auto;html=1;exitX=0.5;exitY=1;exitDx=0;exitDy=0;" edge="1" parent="1" source="lQaxIbGDZZwbGsKKoguf-13">
          <mxGeometry relative="1" as="geometry">
            <mxPoint x="746.7931034482758" y="370" as="targetPoint" />
          </mxGeometry>
        </mxCell>
        <mxCell id="lQaxIbGDZZwbGsKKoguf-13" value="Generate purchase report" style="rounded=1;whiteSpace=wrap;html=1;" vertex="1" parent="1">
          <mxGeometry x="697" y="290" width="100" height="40" as="geometry" />
        </mxCell>
        <mxCell id="lQaxIbGDZZwbGsKKoguf-14" value="" style="endArrow=none;html=1;rounded=0;strokeWidth=6;" edge="1" parent="1">
          <mxGeometry width="50" height="50" relative="1" as="geometry">
            <mxPoint x="499" y="373" as="sourcePoint" />
            <mxPoint x="779" y="373" as="targetPoint" />
          </mxGeometry>
        </mxCell>
        <mxCell id="lQaxIbGDZZwbGsKKoguf-26" value="[print]" style="text;html=1;align=center;verticalAlign=middle;resizable=0;points=[];autosize=1;strokeColor=none;fillColor=none;" vertex="1" parent="1">
          <mxGeometry x="555" y="438" width="50" height="30" as="geometry" />
        </mxCell>
        <mxCell id="lQaxIbGDZZwbGsKKoguf-27" value="[no]" style="text;html=1;align=center;verticalAlign=middle;resizable=0;points=[];autosize=1;strokeColor=none;fillColor=none;" vertex="1" parent="1">
          <mxGeometry x="660" y="438" width="40" height="30" as="geometry" />
        </mxCell>
      </root>
    </mxGraphModel>
  </diagram>
</mxfile>
